<?xml version="1.0" standalone="no"?>
<!DOCTYPE svg PUBLIC "-//W3C//DTD SVG 20010904//EN"
 "http://www.w3.org/TR/2001/REC-SVG-20010904/DTD/svg10.dtd">
<svg version="1.0" xmlns="http://www.w3.org/2000/svg"
 width="500.000000pt" height="500.000000pt" viewBox="0 0 500.000000 500.000000"
 preserveAspectRatio="xMidYMid meet">
<metadata>
Created by potrace 1.14, written by Peter Selinger 2001-2017
</metadata>
<g transform="translate(0.000000,500.000000) scale(0.100000,-0.100000)"
fill="#000000" stroke="none">
<path d="M2184 4492 c-13 -21 -7 -42 12 -42 8 0 14 -4 14 -10 0 -5 7 -10 16
-10 9 0 18 -9 21 -20 3 -11 13 -20 22 -21 12 0 11 -2 -4 -9 -11 -5 -14 -9 -7
-9 6 -1 12 -5 12 -10 0 -5 -12 -7 -27 -5 -15 3 -25 3 -22 -1 4 -3 17 -8 29
-10 12 -2 25 -7 29 -11 3 -4 -1 -5 -10 -2 -30 11 -41 -7 -18 -28 13 -10 19
-13 15 -6 -7 11 5 17 27 13 5 -1 5 8 2 20 -5 16 -3 20 6 16 8 -2 13 -10 12
-16 -4 -16 8 -13 24 7 8 9 12 12 9 5 -4 -6 2 -17 11 -23 16 -10 16 -11 1 -6
-12 3 -15 1 -12 -9 3 -8 9 -14 12 -13 25 3 34 -3 24 -15 -8 -10 -5 -12 14 -12
39 2 50 20 26 41 -12 10 -18 22 -15 28 4 6 0 5 -9 -2 -13 -10 -18 -9 -29 4
-11 14 -9 19 11 36 14 11 19 16 11 12 -10 -5 -12 -3 -7 5 5 7 15 10 23 7 8 -3
11 -1 8 4 -3 6 -2 10 2 10 5 0 9 9 10 20 2 20 1 20 -17 -2 -11 -13 -19 -20
-20 -16 0 4 -11 3 -24 -2 -16 -6 -27 -5 -35 3 -9 9 -11 9 -8 -3 2 -8 2 -11 -1
-7 -2 4 -11 2 -20 -5 -15 -12 -16 -11 -2 5 12 17 12 20 -3 29 -10 5 -15 13
-12 18 3 5 -4 7 -15 5 -11 -2 -20 0 -20 6 0 5 -5 9 -11 9 -5 0 -8 -4 -5 -9 4
-5 -2 -8 -11 -6 -10 2 -22 4 -26 4 -5 1 -5 6 -1 12 4 7 9 8 13 1 4 -7 13 -5
25 4 17 12 18 14 3 14 -9 0 -20 0 -23 -1 -4 0 -10 4 -13 10 -4 6 -11 4 -17 -7z
m106 -76 c0 -6 -7 -3 -14 6 -7 10 -17 14 -21 10 -5 -4 -5 -1 -1 6 6 10 11 10
22 1 8 -6 14 -17 14 -23z m80 -30 c0 -2 -7 -7 -16 -10 -8 -3 -12 -2 -9 4 6 10
25 14 25 6z m54 -107 c-3 -5 -10 -7 -15 -3 -5 3 -7 10 -3 15 3 5 10 7 15 3 5
-3 7 -10 3 -15z"/>
<path d="M2355 4427 c-20 -19 -20 -20 2 -8 12 6 27 10 34 9 6 -2 13 2 16 9 7
19 -30 11 -52 -10z"/>
<path d="M2050 4422 c0 -7 5 -12 12 -12 6 0 3 -7 -8 -15 -14 -12 -15 -14 -2
-9 13 4 16 1 12 -18 -2 -13 -2 -17 2 -10 3 6 10 9 15 6 6 -3 5 -12 -3 -22 -7
-10 -9 -14 -4 -10 4 3 19 0 33 -7 22 -12 29 -11 48 1 19 12 25 13 31 2 4 -7 4
-10 -1 -6 -15 14 -46 -12 -40 -33 4 -11 2 -19 -5 -19 -6 0 -8 5 -4 12 4 7 3 8
-5 4 -9 -6 -9 -11 0 -22 8 -9 8 -14 2 -12 -6 2 -12 -1 -13 -7 -3 -18 16 -16
37 4 20 19 22 19 37 2 9 -10 14 -20 11 -22 -2 -3 12 -5 31 -5 24 0 33 4 30 13
-3 7 3 17 12 23 15 9 15 10 -3 8 -11 -2 -23 -7 -26 -11 -3 -5 -9 -1 -12 8 -4
9 -3 13 3 10 16 -10 11 21 -5 35 -8 7 -12 16 -10 21 3 4 -3 6 -15 4 -11 -2
-22 0 -25 5 -3 5 -13 6 -22 3 -11 -4 -14 -2 -9 5 4 6 -7 21 -25 34 -17 13 -32
21 -34 18 -1 -3 -12 4 -24 14 -12 11 -21 14 -21 8z m77 -48 c15 -13 22 -23 16
-24 -7 0 -13 5 -13 11 0 6 -6 9 -14 6 -8 -3 -21 2 -30 12 -25 27 6 23 41 -5z
m-17 -34 c0 -5 -2 -10 -4 -10 -3 0 -8 5 -11 10 -3 6 -1 10 4 10 6 0 11 -4 11
-10z m120 -100 c0 -5 -2 -10 -4 -10 -3 0 -8 5 -11 10 -3 6 -1 10 4 10 6 0 11
-4 11 -10z"/>
<path d="M2370 4351 c0 -5 5 -13 10 -16 6 -3 10 -2 10 4 0 5 -4 13 -10 16 -5
3 -10 2 -10 -4z"/>
<path d="M1956 4282 c-4 -7 -3 -12 3 -12 5 0 8 -9 6 -20 -2 -11 0 -18 5 -15 5
3 14 -3 20 -14 6 -12 6 -22 0 -26 -5 -3 -7 -12 -4 -19 3 -8 0 -17 -7 -22 -7
-4 -10 -3 -6 2 3 5 -3 10 -13 10 -18 0 -18 -1 -2 -20 9 -11 11 -16 5 -12 -14
8 -53 17 -53 12 0 -2 8 -10 17 -17 15 -12 16 -12 8 1 -5 9 -5 12 1 7 5 -5 10
-17 10 -28 2 -31 3 -32 17 -20 10 8 14 7 14 -4 0 -8 -4 -12 -9 -9 -4 3 -8 1
-8 -4 0 -5 12 -9 27 -9 21 0 23 1 9 9 -9 5 -13 14 -10 20 4 6 0 14 -7 19 -10
6 -11 9 -1 9 6 0 12 8 12 18 0 9 4 13 8 7 4 -5 13 -11 21 -13 12 -3 12 0 2 12
-9 11 -9 16 0 22 8 4 9 3 5 -4 -4 -7 -3 -12 3 -12 5 0 12 6 14 13 4 10 6 10 6
0 1 -7 6 -13 12 -13 5 0 7 5 4 11 -4 6 2 5 13 -2 12 -7 18 -17 16 -21 -3 -4 2
-8 10 -8 8 0 18 -5 22 -12 5 -7 3 -8 -7 -2 -8 4 -3 -6 11 -22 14 -17 26 -27
28 -23 2 4 10 5 18 2 11 -4 14 4 12 38 -1 24 -3 38 -6 31 -2 -7 -9 -9 -15 -5
-8 5 -8 2 0 -8 10 -13 10 -19 -3 -35 -15 -18 -15 -18 -6 0 6 13 5 27 -4 44 -7
14 -11 29 -9 32 3 4 -7 5 -20 2 -29 -5 -34 12 -8 27 16 9 16 11 2 28 -9 10
-14 24 -11 32 3 9 0 11 -7 6 -7 -4 -10 -13 -7 -21 3 -7 1 -16 -5 -19 -5 -4
-13 4 -17 16 l-9 23 -7 -25 c-6 -23 -7 -23 -21 -5 -8 10 -12 23 -8 29 4 6 1 7
-7 2 -10 -6 -12 -4 -6 10 5 15 4 16 -9 5 -12 -10 -15 -10 -15 1 0 12 -2 12 -9
0 -7 -11 -9 -11 -13 0 -3 10 -6 10 -12 1z m49 -40 c-6 -7 -34 11 -29 19 3 5
11 3 19 -4 7 -6 12 -13 10 -15z m25 -42 c0 -5 -2 -10 -4 -10 -3 0 -8 5 -11 10
-3 6 -1 10 4 10 6 0 11 -4 11 -10z m-20 -20 c0 -5 -2 -10 -4 -10 -3 0 -8 5
-11 10 -3 6 -1 10 4 10 6 0 11 -4 11 -10z m127 -37 c0 -9 -4 -10 -14 -2 -7 6
-13 12 -13 14 0 1 6 2 13 2 8 0 14 -6 14 -14z m13 -43 c0 -5 -2 -10 -4 -10 -3
0 -8 5 -11 10 -3 6 -1 10 4 10 6 0 11 -4 11 -10z"/>
<path d="M2157 4239 c-18 -11 -14 -29 6 -29 7 0 6 4 -3 10 -13 9 -13 10 0 11
8 1 18 1 23 0 4 0 7 4 7 9 0 13 -10 12 -33 -1z"/>
<path d="M2274 4231 c1 -9 -5 -15 -11 -13 -7 1 -13 -3 -13 -9 0 -5 -6 -7 -12
-3 -8 4 -10 3 -5 -2 5 -5 14 -9 20 -9 7 -1 11 -6 10 -13 -2 -6 3 -9 11 -6 7 3
20 -1 27 -8 18 -18 52 -31 44 -18 -3 6 1 13 9 16 13 5 11 10 -10 27 -21 16
-30 18 -45 9 -30 -19 -33 -14 -8 9 13 11 18 17 10 13 -10 -5 -13 -3 -9 8 4 8
1 15 -7 15 -7 0 -12 -7 -11 -16z m65 -45 c9 -10 8 -15 -3 -19 -10 -4 -13 -1
-9 9 4 10 0 13 -13 8 -16 -5 -16 -4 -4 5 19 13 15 14 29 -3z"/>
<path d="M2060 4140 c-9 -6 -10 -10 -3 -10 6 0 15 5 18 10 8 12 4 12 -15 0z"/>
<path d="M475 4090 c-9 -10 -11 -21 -5 -30 5 -8 5 -21 1 -29 -5 -9 -7 -24 -6
-34 2 -9 -1 -15 -6 -11 -5 3 -6 10 -3 16 4 7 2 8 -4 4 -9 -5 -9 -13 -2 -26 14
-27 12 -33 -7 -26 -15 6 -14 4 2 -14 19 -20 19 -21 -1 -14 -15 6 -17 5 -8 -7
13 -16 15 -51 2 -43 -5 3 -6 9 -3 14 3 5 2 11 -3 14 -12 7 -11 -26 1 -41 5 -7
6 -13 1 -13 -5 0 -2 -5 6 -11 12 -8 12 -9 -5 -7 -22 3 -28 -18 -11 -41 9 -12
8 -13 -3 -6 -11 6 -13 4 -7 -10 4 -11 0 -25 -10 -36 -14 -16 -15 -21 -3 -36 8
-9 9 -14 2 -10 -15 9 -23 -13 -12 -35 6 -11 4 -22 -7 -32 -11 -11 -12 -16 -3
-16 10 0 10 -3 1 -12 -15 -15 -16 -32 -1 -23 6 4 5 -2 -2 -13 -10 -16 -10 -23
0 -35 9 -12 9 -17 0 -23 -7 -4 -9 -3 -5 4 3 6 2 13 -4 17 -14 9 -12 -28 3 -45
6 -8 1 -6 -12 5 -14 11 -21 14 -17 7 9 -15 14 -82 6 -77 -3 2 -13 -10 -22 -26
-11 -18 -13 -31 -7 -35 6 -3 13 -3 16 0 4 3 1 6 -6 6 -7 0 -9 5 -6 10 10 16
23 11 20 -7 -2 -10 -4 -18 -5 -18 -1 0 -3 -9 -5 -19 -2 -10 -10 -23 -17 -27
-7 -5 -8 -9 -2 -9 6 0 11 -7 11 -15 0 -11 -4 -12 -14 -3 -11 8 -12 7 -7 -6 3
-9 9 -16 13 -16 4 0 8 -7 8 -15 0 -11 -3 -12 -14 -3 -11 9 -13 8 -11 -3 2 -8
8 -17 13 -21 6 -5 5 -8 -2 -8 -7 0 -13 -5 -13 -11 0 -5 5 -7 11 -3 8 4 8 1 1
-13 -6 -10 -9 -31 -8 -46 2 -16 -1 -24 -7 -20 -6 4 -8 0 -4 -10 3 -9 2 -19 -4
-23 -6 -3 -8 -12 -5 -19 2 -7 -1 -18 -7 -24 -15 -15 -18 -42 -4 -35 7 3 3 -2
-7 -10 -13 -11 -15 -16 -6 -16 9 0 8 -6 -6 -22 -10 -12 -13 -18 -6 -14 13 8
17 -6 5 -18 -12 -12 -12 -37 0 -29 7 4 4 -6 -7 -21 -11 -17 -13 -25 -5 -20 12
6 12 5 0 -9 -11 -14 -11 -17 0 -17 11 0 11 -2 -1 -10 -11 -7 -11 -10 -2 -10 7
0 10 -5 7 -10 -4 -6 -11 -7 -17 -4 -8 5 -9 1 -5 -11 4 -9 2 -24 -4 -31 -9 -11
-8 -14 2 -14 10 0 11 -3 3 -8 -15 -9 -21 -43 -11 -59 4 -6 2 -15 -4 -19 -8 -5
-9 -3 -4 6 5 9 4 11 -4 6 -9 -6 -9 -11 0 -22 9 -11 9 -17 -1 -29 -7 -8 -10
-24 -7 -35 3 -11 1 -18 -3 -15 -5 3 -9 -3 -8 -12 0 -10 -3 -36 -7 -58 -5 -22
-8 -48 -7 -57 0 -10 -4 -18 -10 -18 -7 0 -7 -5 1 -14 9 -11 8 -15 -4 -20 -11
-4 -14 -12 -10 -27 5 -15 4 -19 -4 -15 -14 9 -10 -16 4 -26 6 -4 1 -8 -10 -8
-14 0 -16 -3 -7 -12 9 -9 7 -15 -6 -25 -9 -8 -12 -12 -6 -9 15 8 16 -61 1 -71
-6 -4 -7 -1 -2 7 5 9 4 11 -4 6 -9 -6 -9 -11 0 -22 6 -8 7 -14 2 -14 -6 0 -9
-11 -8 -25 2 -14 0 -25 -5 -25 -10 0 -8 -20 3 -37 6 -9 3 -11 -10 -6 -16 6
-16 5 -4 -10 11 -14 11 -17 0 -17 -11 0 -11 -2 1 -10 9 -6 11 -10 3 -10 -7 0
-10 -7 -7 -15 4 -9 0 -15 -7 -15 -12 0 -12 -2 0 -9 9 -6 10 -11 2 -15 -6 -4
-9 -12 -6 -17 4 -5 1 -9 -5 -9 -6 0 -9 -4 -5 -9 3 -5 1 -12 -5 -16 -6 -3 -8
-17 -6 -31 3 -13 1 -22 -4 -19 -5 3 -11 1 -15 -5 -3 -5 0 -10 7 -10 9 0 9 -3
-2 -10 -13 -8 -13 -10 -1 -10 11 0 10 -4 -4 -13 -14 -11 -15 -16 -5 -22 9 -6
11 -4 5 5 -6 9 -4 11 5 5 10 -6 9 -11 -5 -22 -11 -7 -14 -13 -8 -13 6 0 9 -9
6 -20 -4 -14 0 -20 11 -20 11 0 14 -4 10 -12 -6 -10 -4 -10 8 0 13 10 18 10
24 1 5 -8 3 -9 -6 -4 -8 5 -11 4 -7 -2 3 -5 20 -8 37 -5 17 2 30 0 30 -7 0 -6
6 -8 14 -5 7 3 20 -1 27 -9 8 -7 24 -13 36 -12 12 1 21 -1 19 -4 -2 -3 3 -13
12 -21 14 -13 15 -12 9 3 -10 26 6 20 27 -10 12 -19 16 -22 12 -8 -6 19 -5 19
7 3 8 -10 17 -15 20 -11 4 3 7 1 7 -6 0 -7 4 -10 9 -7 5 3 14 -1 21 -10 7 -8
19 -13 26 -10 7 3 18 -2 25 -10 9 -11 15 -12 25 -3 10 8 14 8 14 0 0 -6 5 -11
11 -11 5 0 7 5 3 12 -4 7 -3 8 5 4 6 -4 9 -11 6 -16 -3 -4 2 -11 11 -14 9 -3
12 -11 8 -18 -6 -10 -5 -10 7 -1 12 10 18 10 29 0 12 -10 12 -9 2 5 -11 13
-10 18 0 24 7 4 10 4 6 -1 -4 -4 4 -18 19 -31 26 -22 28 -22 47 -6 20 17 20
17 3 -10 -10 -17 -13 -29 -7 -33 6 -4 9 -1 8 6 -2 7 2 13 9 14 6 0 14 3 18 7
9 9 35 -2 35 -14 0 -6 -8 -4 -17 3 -16 12 -17 12 -6 -2 7 -9 9 -20 5 -25 -4
-5 4 0 17 11 22 18 24 18 18 2 -4 -10 -3 -16 2 -12 5 3 12 1 16 -5 4 -6 11 -8
16 -4 12 7 71 -15 65 -25 -3 -4 4 -7 14 -7 10 0 16 4 14 8 -3 4 -1 8 5 8 5 0
12 -6 14 -12 4 -10 8 -9 16 2 7 9 11 11 11 3 0 -7 -8 -17 -17 -23 -16 -10 -15
-10 3 -5 13 3 28 -1 38 -10 9 -9 16 -12 16 -7 0 6 7 13 16 16 15 6 15 4 3 -11
-7 -10 -10 -15 -5 -11 13 11 48 -11 40 -25 -5 -9 -4 -9 6 0 11 10 16 9 27 -5
10 -12 9 -6 -2 18 -11 25 -12 30 -2 18 8 -10 17 -14 21 -10 4 4 6 0 4 -7 -2
-12 7 -15 41 -14 31 0 39 -2 27 -9 -25 -14 -20 -31 6 -17 18 9 20 9 15 -4 -4
-12 0 -14 20 -11 20 4 24 1 20 -11 -4 -8 -2 -15 3 -15 6 0 10 8 10 18 1 16 1
16 11 0 5 -10 14 -18 19 -18 5 0 6 8 3 18 -6 15 -5 15 12 -1 15 -16 16 -20 4
-29 -11 -8 -11 -9 3 -5 9 3 19 3 21 -1 2 -4 3 -2 2 3 -2 6 8 10 20 10 19 0 21
-3 14 -17 -15 -29 -10 -32 13 -7 16 19 20 20 14 5 -5 -14 -2 -17 9 -12 8 3 15
1 15 -4 0 -6 5 -10 11 -10 5 0 7 5 3 12 -4 7 -3 8 5 4 6 -4 9 -12 6 -17 -4 -5
1 -9 10 -9 10 0 13 5 9 13 -6 8 -3 8 9 -1 9 -8 21 -11 26 -7 7 3 8 0 5 -10 -5
-13 -9 -13 -23 -3 -14 12 -15 11 -2 -5 9 -11 18 -14 24 -8 12 12 48 -18 40
-33 -3 -6 0 -5 7 1 12 11 11 16 -6 28 -17 15 -16 15 12 1 17 -8 35 -12 39 -8
5 4 5 1 1 -6 -4 -7 -12 -9 -18 -6 -7 4 -8 2 -4 -4 4 -6 14 -8 23 -5 12 5 14 3
8 -8 -8 -12 -6 -12 8 0 9 7 17 9 17 4 0 -6 10 -10 23 -10 41 -1 47 -3 47 -18
0 -8 5 -15 11 -15 5 0 7 4 4 10 -3 6 1 7 9 4 9 -3 13 -10 10 -15 -3 -5 4 -9
16 -9 13 0 19 4 14 12 -5 7 -3 8 5 4 7 -5 10 -15 6 -23 -4 -13 -3 -14 9 -4 11
9 16 9 22 0 5 -8 3 -9 -6 -4 -9 6 -11 4 -5 -4 5 -9 11 -9 17 -3 12 12 41 4 33
-8 -3 -4 2 -11 11 -14 12 -5 15 -2 10 9 -3 9 -2 13 4 10 6 -3 10 -14 10 -23 0
-15 2 -15 10 -2 8 12 10 12 10 1 0 -10 3 -11 13 -2 18 14 30 2 16 -16 -8 -9
-8 -13 -1 -13 6 0 16 8 22 17 10 16 11 15 6 -5 -5 -23 -4 -24 16 -5 21 18 21
18 8 -7 -10 -21 -10 -23 1 -12 7 6 17 12 22 12 4 0 5 -6 1 -12 -6 -9 -3 -9 9
0 14 12 16 11 12 -5 -2 -11 2 -20 10 -20 7 0 11 9 8 21 -4 21 -4 21 8 1 16
-25 36 -45 45 -45 4 0 0 8 -9 18 -15 16 -15 19 -2 19 8 0 13 -3 10 -5 -9 -10
37 -41 52 -35 12 5 14 3 8 -8 -7 -11 -6 -12 6 -3 23 17 44 11 41 -11 -2 -11
-1 -17 3 -13 4 4 17 2 29 -4 11 -7 25 -11 30 -10 5 2 16 -4 26 -13 14 -12 20
-13 26 -4 4 7 3 10 -2 7 -5 -3 -18 4 -29 14 -20 20 -20 20 11 5 17 -9 35 -13
39 -9 4 4 3 -2 -3 -14 -9 -16 -8 -21 3 -21 8 0 12 4 9 9 -9 14 7 9 23 -8 10
-10 27 -14 44 -12 18 3 26 1 21 -6 -10 -17 -11 -37 -1 -30 5 3 7 9 4 14 -3 4
2 11 11 14 10 4 13 2 8 -6 -5 -8 -2 -9 9 -5 11 4 17 1 17 -9 0 -12 4 -13 23
-3 19 11 21 11 9 -3 -10 -13 -10 -18 -1 -24 8 -4 9 -3 5 4 -4 7 -1 12 8 12 9
0 16 -6 16 -12 0 -9 4 -8 10 2 8 12 10 12 10 1 0 -9 7 -11 21 -8 17 5 18 3 7
-10 -12 -15 -11 -15 9 -4 19 10 26 8 43 -9 21 -21 36 -27 25 -11 -3 5 0 13 6
17 8 4 9 3 5 -4 -4 -7 -3 -12 3 -12 6 0 8 -7 5 -15 -4 -8 -1 -15 6 -15 6 0 8
5 5 10 -3 6 1 10 9 10 10 0 16 -9 17 -22 1 -22 1 -22 9 2 4 14 8 19 9 12 1 -7
6 -10 11 -7 6 4 10 3 9 -2 -1 -4 -1 -15 1 -23 1 -11 4 -9 10 5 7 17 9 17 9 3
1 -10 6 -18 12 -18 5 0 8 4 4 9 -3 5 0 13 6 17 8 4 9 3 5 -4 -4 -7 -2 -12 4
-12 6 0 8 -4 5 -10 -3 -5 -1 -10 5 -10 6 0 8 -5 4 -12 -4 -7 -3 -8 5 -4 6 4 9
11 6 16 -3 5 0 12 6 16 8 4 9 3 5 -4 -4 -7 -1 -12 7 -12 8 0 20 -6 27 -14 6
-8 18 -12 26 -9 8 3 14 0 14 -7 0 -6 10 -10 23 -8 15 2 22 -2 21 -12 -1 -12 7
-15 32 -12 19 2 34 9 34 15 0 6 3 7 6 4 4 -4 1 -15 -7 -24 -7 -10 -9 -15 -4
-10 4 4 17 -1 28 -10 11 -10 17 -13 14 -7 -4 7 0 17 7 23 12 10 13 8 9 -11
l-6 -23 24 20 c13 11 18 13 12 5 -10 -13 -8 -18 9 -29 18 -11 20 -11 15 3 -6
14 -3 15 14 5 13 -7 19 -7 15 -1 -3 6 -2 14 4 17 6 4 9 1 8 -7 -2 -7 5 -12 14
-12 10 1 15 -2 12 -7 -3 -5 2 -6 10 -3 9 3 13 11 10 18 -3 6 1 2 10 -8 8 -10
13 -23 9 -29 -3 -6 -1 -7 5 -3 6 4 10 12 8 19 -1 7 -1 9 1 5 8 -13 35 -9 47 8
10 13 12 13 12 -5 0 -11 -4 -17 -8 -15 -4 3 -8 1 -8 -5 0 -5 9 -9 19 -8 11 0
17 5 15 9 -3 4 0 8 5 8 6 0 11 -6 11 -12 0 -9 3 -8 10 2 5 8 12 11 16 7 4 -3
1 -14 -7 -23 -10 -12 -3 -11 24 5 46 26 47 26 47 0 0 -15 4 -19 16 -15 9 3 18
6 20 6 3 0 2 6 -1 13 -4 6 -1 5 7 -3 13 -15 52 -24 43 -11 -2 4 2 8 11 8 9 0
13 -7 9 -21 -3 -12 -2 -15 1 -8 3 6 11 9 16 6 7 -5 8 -2 3 6 -5 8 -3 11 6 8 8
-3 13 -11 11 -17 -1 -7 2 -10 8 -6 6 3 8 10 6 14 -3 4 6 7 20 7 14 -1 29 -8
34 -16 8 -13 10 -12 10 2 0 9 4 19 9 22 5 4 7 -4 5 -16 -2 -13 -2 -17 2 -10 3
6 10 12 15 12 6 0 8 -4 5 -9 -3 -5 3 -11 15 -14 15 -4 18 -2 10 7 -8 9 -7 13
4 13 8 0 15 -7 15 -16 1 -14 2 -13 11 1 9 16 12 17 34 2 14 -9 25 -11 29 -5 4
6 13 8 21 5 8 -4 13 -10 10 -14 -3 -4 3 -14 12 -21 9 -8 14 -9 10 -3 -4 7 0
17 8 24 13 10 19 9 37 -6 19 -17 21 -17 15 -1 -4 9 -2 17 3 17 6 0 10 -7 10
-15 0 -13 4 -14 20 -5 16 8 24 6 42 -12 15 -15 20 -17 15 -5 -3 9 -2 17 2 17
5 0 11 -5 13 -12 4 -12 48 -20 48 -8 0 3 -6 12 -13 20 -6 8 -3 7 9 -3 23 -19
39 -23 29 -7 -3 6 -1 10 4 10 6 0 11 -6 11 -12 0 -7 5 -5 11 5 5 9 8 21 4 26
-3 5 0 13 6 17 7 4 9 3 5 -4 -3 -6 -2 -13 3 -16 11 -7 9 13 -3 33 -6 10 -5 12
2 7 7 -4 12 -1 12 8 0 8 5 18 12 22 7 4 8 3 4 -4 -5 -8 -2 -10 9 -6 14 6 14 8
-1 19 -18 12 -12 36 9 34 9 0 9 -2 0 -6 -7 -2 -13 -9 -13 -15 0 -6 9 -3 20 7
11 10 17 21 15 26 -3 4 3 13 12 19 16 10 16 11 1 6 -10 -3 -20 -1 -23 4 -4 6
1 10 9 10 19 0 20 11 3 30 -10 12 -9 12 6 1 15 -12 17 -11 17 10 0 17 3 20 9
11 6 -11 9 -9 13 6 4 16 2 19 -11 15 -13 -4 -13 -2 2 7 9 6 23 8 30 5 6 -4 3
1 -7 9 -11 9 -15 16 -10 16 6 0 19 7 30 16 10 8 12 12 4 8 -8 -4 -5 4 7 17 22
24 22 26 6 49 l-17 25 24 -20 23 -20 -12 22 c-10 19 -8 24 9 35 11 7 20 16 20
21 0 4 -5 5 -12 1 -7 -4 -8 -3 -4 5 4 6 11 9 16 6 10 -6 32 20 23 28 -3 4 -1
7 5 7 7 0 11 3 11 8 -3 19 2 33 10 27 5 -3 13 0 17 6 4 8 3 9 -4 5 -14 -8 -15
3 -3 23 5 8 14 10 21 6 9 -5 11 -4 6 4 -4 6 -2 20 5 29 10 12 7 11 -10 -3
l-23 -20 19 33 c10 17 22 32 26 32 5 0 5 -5 2 -10 -3 -5 -1 -10 4 -10 14 0 14
13 -1 28 -9 9 -8 12 6 12 16 0 17 2 5 17 -12 14 -12 16 0 8 11 -6 13 -4 8 8
-4 10 1 21 12 29 17 12 21 18 21 36 0 4 4 1 9 -7 6 -9 9 -6 9 12 -1 19 -5 24
-17 20 -11 -3 -11 -1 3 7 14 10 20 9 28 -1 8 -11 9 -10 4 4 -3 10 0 20 8 23 8
3 15 14 15 25 1 10 1 28 2 39 0 13 7 20 19 20 10 0 22 4 25 10 3 5 0 7 -8 4
-8 -3 -18 0 -23 7 -4 7 -3 10 3 6 5 -3 17 3 26 14 9 10 13 19 9 19 -5 0 -9 7
-9 15 0 8 3 12 7 10 3 -2 12 0 20 6 10 6 11 9 3 9 -7 0 -13 4 -13 10 0 5 6 7
14 4 8 -3 17 0 22 7 4 7 3 10 -3 6 -6 -4 -13 -1 -16 7 -4 11 1 13 19 10 25 -5
33 9 12 22 -7 4 -8 3 -4 -4 5 -8 2 -10 -9 -6 -14 6 -14 8 2 19 10 7 21 11 25
9 4 -3 5 2 2 10 -3 9 -11 13 -17 9 -6 -3 -7 -1 -3 6 4 6 12 8 18 5 7 -5 9 -1
5 9 -4 11 -1 17 9 17 8 0 12 -4 9 -10 -3 -6 1 -7 10 -3 13 4 14 8 4 14 -7 4
-13 17 -14 28 -1 17 1 19 14 8 12 -10 14 -9 8 6 -5 13 -3 17 5 14 7 -2 12 -10
10 -16 -1 -7 2 -9 8 -6 8 5 5 14 -7 28 -14 16 -15 19 -3 15 11 -4 16 1 17 13
1 12 -3 17 -10 13 -7 -3 -3 1 7 10 10 8 23 13 29 9 6 -3 7 -1 3 6 -4 6 -13 8
-19 4 -8 -5 -8 -2 0 9 7 8 10 18 6 22 -4 4 1 4 12 0 17 -7 18 -6 7 8 -11 14
-10 16 6 11 11 -2 22 0 26 5 3 5 -2 9 -11 8 -9 0 -18 6 -20 14 -4 13 -3 13 6
0 8 -12 12 -9 20 13 6 16 15 26 20 22 5 -3 13 0 17 6 4 8 3 9 -4 5 -7 -4 -12
-2 -12 4 0 6 -5 8 -12 4 -7 -4 -8 -3 -4 5 4 6 12 9 17 6 5 -3 6 1 3 9 -6 16
10 23 19 9 2 -5 2 -2 0 6 -2 9 3 11 14 7 15 -5 15 -4 -1 9 -11 8 -17 18 -13
21 4 4 15 1 24 -7 15 -11 14 -9 -1 9 -16 18 -16 22 -4 17 9 -4 19 -1 24 6 4 7
3 10 -4 5 -6 -3 -13 -2 -17 4 -3 5 1 10 10 10 10 0 13 5 9 12 -5 8 -2 9 11 5
17 -7 17 -6 0 20 -16 24 -16 26 -2 14 20 -16 23 -2 5 19 -7 8 -2 6 11 -5 l24
-20 -11 21 c-9 18 -8 24 6 35 15 13 16 12 3 -3 -9 -12 -10 -18 -2 -18 11 0 15
13 12 37 -1 6 4 15 10 19 8 5 9 3 4 -6 -5 -8 -4 -11 3 -6 6 4 9 13 6 21 -4 8
-11 12 -17 8 -6 -3 -7 -1 -3 5 3 6 16 9 29 7 20 -4 20 -3 5 9 -18 13 -15 27 5
22 7 -2 9 -1 4 1 -14 9 -7 25 9 19 8 -3 12 -2 9 4 -9 15 4 49 18 46 7 -1 9 -1
4 1 -4 3 -7 13 -7 24 0 10 -5 19 -11 19 -5 0 -8 4 -4 9 3 5 0 13 -6 17 -8 4
-9 3 -5 -4 4 -7 1 -12 -9 -12 -9 0 -13 4 -10 10 3 6 1 10 -5 10 -6 0 -9 4 -6
8 2 4 -3 8 -12 9 -46 3 -70 8 -66 15 3 4 12 4 21 1 15 -6 16 -5 3 9 -12 13
-17 13 -28 1 -7 -7 -16 -13 -20 -13 -3 0 -1 5 6 12 9 9 7 14 -6 24 -9 8 -24
14 -32 14 -8 0 -21 9 -28 20 -7 11 -18 17 -27 14 -9 -4 -17 1 -21 10 -6 15 -8
15 -20 -1 -13 -17 -14 -17 -8 -1 7 20 -11 25 -20 6 -4 -7 -4 -3 -2 10 4 20 2
21 -12 10 -14 -11 -15 -10 -9 5 5 12 3 16 -5 11 -8 -5 -9 -1 -5 12 7 18 6 18
-7 2 -13 -18 -32 -26 -22 -10 2 4 1 14 -5 22 -7 13 -9 13 -9 1 0 -9 -7 -6 -20
9 -11 12 -17 26 -15 30 3 5 -6 7 -20 5 -15 -1 -30 4 -36 14 -9 14 -10 14 -5
-1 3 -10 1 -20 -5 -23 -5 -4 -8 -1 -7 7 2 7 -5 12 -14 12 -10 -1 -14 4 -11 12
3 8 9 11 14 8 5 -3 9 -1 9 4 0 13 -53 12 -63 -2 -6 -7 -7 -5 -4 6 7 20 -16 30
-34 15 -7 -7 -6 -3 4 9 12 14 13 21 5 21 -7 0 -22 4 -33 8 l-20 8 20 -17 c20
-17 20 -17 -3 -6 -12 6 -20 15 -17 21 5 8 -24 14 -48 10 -5 -1 -6 3 -2 8 3 6
13 7 22 4 15 -6 16 -5 3 9 -8 9 -16 12 -18 7 -2 -5 -8 -9 -14 -9 -6 0 -7 7 -4
16 3 8 2 13 -3 10 -5 -3 -14 1 -21 9 -6 7 -18 11 -27 8 -9 -4 -19 1 -25 11 -9
16 -11 16 -29 0 -17 -16 -18 -15 -14 6 2 13 2 20 -2 17 -3 -4 -14 -2 -24 4
-14 7 -17 6 -13 -5 3 -8 0 -17 -6 -21 -6 -3 -10 -3 -9 2 1 4 1 16 0 26 -1 15
-3 16 -15 5 -8 -7 -11 -17 -8 -22 3 -5 0 -6 -7 -2 -9 6 -9 11 0 22 7 9 8 14 3
13 -22 -4 -35 2 -28 14 4 6 -3 3 -16 -8 -13 -11 -20 -15 -17 -8 10 17 -13 28
-25 12 -7 -11 -9 -9 -5 7 5 22 -6 26 -29 11 -7 -4 -18 1 -25 11 -13 16 -13 16
6 2 18 -14 19 -14 7 2 -10 13 -19 15 -38 8 -14 -6 -24 -6 -24 -1 0 5 5 11 12
13 8 3 6 7 -5 11 -9 3 -24 -1 -33 -11 -16 -16 -17 -15 -10 13 7 29 7 29 -9 10
-9 -11 -14 -15 -11 -8 4 6 1 15 -5 19 -8 4 -9 3 -5 -4 4 -7 2 -12 -4 -12 -6 0
-8 -5 -4 -12 5 -9 2 -9 -9 1 -9 7 -17 19 -17 25 0 6 5 4 11 -4 9 -13 10 -13 6
0 -2 8 -10 14 -16 12 -7 -1 -22 3 -34 9 -19 9 -19 8 3 -11 l25 -21 -27 12
c-16 7 -28 18 -28 26 0 11 -5 11 -20 3 -16 -9 -18 -8 -14 5 5 11 2 13 -10 9
-12 -5 -15 -2 -10 12 6 17 5 17 -9 -1 l-16 -20 -1 20 c0 11 -4 16 -8 10 -4 -5
-13 -11 -21 -13 -12 -3 -12 0 -2 12 10 12 9 14 -10 9 -17 -5 -20 -3 -14 8 5 8
5 11 0 7 -4 -4 -15 -2 -23 5 -13 10 -14 9 -3 -10 10 -19 9 -22 -4 -17 -14 6
-19 18 -16 37 0 4 -3 7 -9 7 -5 0 -10 -6 -10 -12 0 -9 -3 -9 -9 1 -5 8 -17 16
-25 17 -9 1 -14 -2 -10 -7 3 -5 0 -9 -5 -9 -6 0 -11 5 -11 11 0 5 -6 7 -12 3
-9 -5 -9 -3 1 9 7 9 18 14 24 10 6 -3 7 -1 3 5 -5 9 -14 7 -32 -4 -20 -14 -24
-14 -24 -2 0 8 -7 15 -15 15 -11 0 -12 -4 -3 -14 8 -11 7 -12 -6 -7 -9 3 -16
11 -16 16 0 6 -9 8 -21 5 -16 -4 -18 -3 -9 8 8 10 8 15 -1 21 -7 4 -9 3 -5 -4
8 -13 -40 -10 -52 3 -4 4 -2 5 5 1 6 -3 14 -2 17 3 9 14 -19 7 -40 -9 -18 -14
-18 -14 -5 3 14 18 13 18 -17 14 -24 -4 -32 -2 -32 10 0 12 3 13 14 4 11 -9
16 -9 22 0 4 7 3 9 -4 5 -6 -3 -14 -1 -18 5 -5 9 -11 7 -21 -6 -12 -18 -13
-17 -13 6 0 19 -2 21 -10 9 -5 -8 -10 -10 -10 -5 0 6 -10 16 -22 24 l-23 14
20 -23 20 -23 -22 12 c-13 6 -23 16 -23 21 0 14 -48 12 -52 -2 -3 -7 -7 -5
-11 6 -4 10 -3 15 3 11 6 -3 10 -1 10 4 0 15 -13 14 -29 -1 -11 -10 -13 -10
-7 0 5 8 -1 12 -21 12 -22 0 -25 2 -13 10 8 5 10 10 4 10 -5 0 -16 -6 -23 -12
-10 -11 -12 -9 -9 6 4 22 -29 31 -50 13 -11 -9 -13 -7 -10 8 2 13 -4 19 -19
20 -12 1 -19 -3 -16 -8 3 -5 -4 -4 -14 2 -11 6 -24 7 -28 3 -5 -4 -5 -1 0 7 6
11 3 13 -14 8 -19 -5 -21 -2 -15 16 5 18 4 20 -7 10 -19 -19 -29 -16 -30 10
-1 21 -1 21 -9 -3 -4 -14 -8 -19 -9 -12 -1 7 -5 10 -11 7 -5 -3 -17 3 -27 14
-13 16 -20 18 -32 8 -9 -6 -13 -7 -9 -3 4 5 2 16 -5 24 -6 9 -7 13 -2 11 6 -3
18 2 28 13 9 10 13 18 9 18 -4 0 -8 10 -9 23 -2 19 -1 20 8 4 6 -9 15 -15 20
-11 6 4 4 13 -6 24 -9 10 -14 23 -11 29 4 5 1 13 -6 17 -7 4 -10 4 -6 -1 11
-11 -11 -47 -24 -39 -7 5 -8 2 -3 -6 6 -10 4 -12 -8 -7 -11 4 -14 2 -10 -9 3
-7 0 -14 -7 -14 -6 0 -8 -4 -5 -10 4 -6 -1 -7 -12 -3 -16 6 -16 5 -4 -10 7 -9
18 -14 24 -10 6 3 7 1 3 -5 -5 -9 -14 -7 -32 4 -18 12 -24 13 -24 4 0 -9 -7
-7 -22 6 -12 10 -19 14 -15 9 3 -7 -5 -11 -19 -11 -16 0 -23 5 -20 13 3 7 0
15 -6 19 -7 4 -8 3 -4 -4 4 -7 2 -12 -3 -12 -6 0 -11 6 -11 13 0 8 -4 7 -10
-3 -7 -11 -10 -11 -10 -2 0 7 -5 10 -12 6 -7 -5 -8 -3 -3 6 6 10 4 12 -8 7 -8
-3 -18 0 -20 7 -3 9 -15 12 -31 9 -29 -6 -36 13 -8 20 16 4 16 5 -1 6 -10 0
-22 -9 -27 -21 -7 -19 -9 -20 -11 -5 -3 33 -4 35 -13 44 -5 4 -6 3 -3 -3 4 -7
0 -14 -8 -18 -8 -3 -15 -1 -15 4 0 6 -5 10 -11 10 -5 0 -7 -5 -3 -12 4 -6 3
-8 -4 -4 -6 3 -9 15 -7 25 2 14 -2 17 -21 15 -13 -1 -26 2 -30 7 -3 5 -11 6
-17 2 -19 -12 -36 -12 -44 -1 -4 7 -1 8 8 3 8 -5 7 0 -4 12 -9 11 -14 23 -10
28 5 4 2 5 -5 1 -9 -5 -10 -12 -3 -20 7 -8 6 -17 -1 -26 -8 -12 -9 -12 -4 3 4
12 -1 21 -17 27 -12 5 -16 9 -10 9 7 1 12 12 11 25 -1 14 -6 22 -12 19 -5 -4
-7 3 -3 16 4 16 2 21 -7 18 -7 -3 -13 1 -13 9 0 7 4 11 8 8 4 -2 11 1 15 7 4
8 3 9 -4 5 -6 -3 -16 2 -22 13 -7 14 -7 22 2 27 6 4 8 3 4 -4 -3 -6 -2 -13 3
-16 5 -4 8 2 6 11 -1 10 -7 17 -13 16 -18 -4 -21 36 -4 47 13 7 7 8 -22 5 -36
-4 -63 -15 -38 -15 7 0 12 -7 12 -16 0 -9 -5 -12 -12 -8 -7 4 -5 -2 5 -13 9
-11 14 -23 10 -28 -5 -4 -2 -5 5 -1 7 4 12 1 12 -9 0 -10 -5 -14 -12 -10 -7 4
-3 -2 10 -13 22 -20 29 -34 14 -29 -4 1 -7 -2 -7 -8 0 -5 8 -9 18 -8 9 2 17
-2 17 -8 0 -5 -4 -7 -10 -4 -5 3 -10 2 -10 -4 0 -6 -7 -7 -17 -4 -10 4 -14 2
-9 -5 3 -6 1 -14 -5 -18 -7 -4 -10 -3 -6 2 3 5 -1 18 -10 29 -14 19 -14 18 -9
-10 l6 -30 -11 27 c-9 25 -12 26 -26 13 -8 -8 -20 -15 -26 -14 -9 0 -8 2 1 6
17 7 15 20 -4 27 -8 3 -12 2 -9 -4 10 -17 -5 -11 -27 10 -12 11 -24 18 -27 15
-2 -3 4 -12 15 -21 18 -15 17 -15 -6 -1 -14 9 -24 21 -22 28 2 9 0 10 -10 2
-9 -8 -17 -7 -26 3 -10 10 -10 14 -1 14 7 0 10 3 6 6 -12 12 -28 -7 -18 -20 8
-9 7 -13 -4 -13 -8 0 -12 4 -9 9 3 4 0 8 -6 8 -6 0 -8 5 -4 13 5 7 0 6 -11 -3
-14 -11 -17 -11 -11 -1 7 10 3 12 -15 6 -24 -7 -24 -7 -4 10 11 9 15 14 8 10
-17 -8 -64 5 -57 16 3 5 -6 5 -20 -1 -17 -6 -26 -6 -26 0 0 6 -7 10 -16 10 -8
0 -22 7 -31 15 -8 8 -19 12 -25 9 -6 -4 -14 -1 -18 7 -7 10 -11 10 -24 -1 -9
-7 -19 -10 -23 -6 -3 3 0 6 8 6 12 0 12 2 0 9 -8 5 -28 8 -45 6 -17 -2 -25 -1
-19 2 10 3 10 8 -1 19 -16 16 -30 19 -22 5 5 -8 -22 -8 -31 -1 -2 2 -8 3 -15
4 -6 0 -13 8 -15 16 -4 13 -3 13 6 0 6 -8 11 -10 11 -4 0 16 -10 23 -26 17 -8
-3 -11 -10 -7 -17 4 -6 -1 -5 -10 3 -18 14 -23 26 -8 16 5 -3 12 -2 15 3 2 4
-4 9 -15 9 -10 1 -19 -3 -19 -8 0 -5 -6 -4 -14 3 -8 7 -12 16 -10 19 4 8 -34
4 -42 -4 -14 -14 -26 -7 -14 8 7 9 10 18 6 22 -3 3 -6 1 -6 -6 0 -10 -7 -9
-25 3 -14 9 -25 14 -25 10 0 -4 -7 0 -17 7 -9 8 -24 13 -35 11 -10 -2 -18 3
-19 10 0 7 -4 4 -9 -7 l-9 -20 0 20 c-1 15 -3 17 -10 7 -6 -11 -10 -10 -16 5
-7 17 -8 17 -15 -2 -8 -18 -9 -18 -9 -2 -1 12 -5 16 -13 11 -10 -6 -10 -5 0 8
10 13 9 15 -13 10 -17 -3 -25 0 -25 9 0 11 -2 11 -10 -1 -6 -10 -10 -11 -10
-2 0 6 -5 12 -11 12 -5 0 -7 -6 -3 -12 6 -10 5 -10 -8 -1 -8 7 -18 10 -21 6
-7 -6 -11 12 -8 30 1 4 -7 4 -16 -1 -23 -12 -43 -5 -43 14 0 9 -5 12 -10 9 -6
-4 -8 -12 -4 -18 3 -7 -4 -1 -15 12 -13 14 -21 18 -21 10 0 -11 -2 -11 -9 1
-6 8 -7 19 -4 25 4 5 2 6 -3 2 -5 -5 -9 -14 -9 -20 0 -5 -6 -11 -13 -13 -7 -1
-8 0 -3 2 6 3 7 12 4 20 -4 12 -8 12 -19 -3 -13 -17 -14 -17 -8 0 7 19 -12 24
-19 5 -4 -10 -6 -10 -6 0 -1 7 -5 10 -11 7 -6 -4 -7 1 -3 12 6 16 5 17 -12 3
-11 -9 -16 -10 -11 -2 4 7 2 12 -8 12 -8 0 -16 -5 -18 -12 -3 -7 -7 -5 -11 6
-4 9 -3 15 2 11 5 -3 13 0 17 6 4 7 3 9 -4 5 -6 -3 -13 -3 -16 2 -3 5 -19 7
-37 4 -22 -3 -30 -1 -25 7 4 6 2 11 -3 11 -6 0 -11 -4 -11 -10 0 -5 -11 2 -25
16 -25 25 -26 25 -53 8 -27 -17 -27 -17 -10 2 16 19 16 20 -3 20 -11 0 -26 -7
-34 -16z m19 -5 c-4 -8 -11 -15 -16 -15 -6 0 -5 6 2 15 7 8 14 15 16 15 2 0 1
-7 -2 -15z m53 -17 c-3 -8 -6 -5 -6 6 -1 11 2 17 5 13 3 -3 4 -12 1 -19z m639
-224 c1 -9 0 -13 -4 -10 -3 4 -7 14 -8 22 -1 9 0 13 4 10 3 -4 7 -14 8 -22z
m433 -157 c0 -9 -2 -8 -6 1 -2 6 -10 9 -15 6 -7 -4 -8 -2 -4 5 9 13 26 5 25
-12z m436 -5 c-3 -3 -11 0 -18 7 -9 10 -8 11 6 5 10 -3 15 -9 12 -12z m-327
-36 c-7 -8 -15 -12 -17 -11 -5 6 10 25 20 25 5 0 4 -6 -3 -14z m339 -8 c-3 -8
-6 -5 -6 6 -1 11 2 17 5 13 3 -3 4 -12 1 -19z m43 -78 c0 -5 -5 -10 -11 -10
-5 0 -7 5 -4 10 3 6 8 10 11 10 2 0 4 -4 4 -10z m104 -76 c3 -8 2 -12 -4 -9
-6 3 -10 10 -10 16 0 14 7 11 14 -7z m36 -15 c0 -6 -4 -7 -10 -4 -5 3 -10 11
-10 16 0 6 5 7 10 4 6 -3 10 -11 10 -16z m403 -66 c-20 -7 -15 -23 5 -17 14 5
15 4 2 -5 -8 -6 -19 -6 -24 -1 -10 10 1 30 17 29 9 0 9 -2 0 -6z m292 -172
c-9 -8 -36 -10 -30 -2 2 4 11 8 20 8 8 0 13 -3 10 -6z m1265 -451 c0 -5 -5
-10 -11 -10 -5 0 -7 5 -4 10 3 6 8 10 11 10 2 0 4 -4 4 -10z m17 -25 c0 -8 -4
-12 -9 -9 -5 3 -6 10 -3 15 9 13 12 11 12 -6z m291 -153 c2 -7 -1 -12 -8 -12
-6 0 -8 5 -4 12 5 8 2 9 -10 5 -11 -4 -15 -3 -11 4 8 12 27 7 33 -9z m209
-128 c-9 -9 -28 6 -21 18 4 6 10 6 17 -1 6 -6 8 -13 4 -17z m58 -23 c3 -5 2
-12 -3 -15 -5 -3 -9 1 -9 9 0 17 3 19 12 6z m-4355 -857 c0 -8 -5 -12 -10 -9
-6 4 -8 11 -5 16 9 14 15 11 15 -7z m77 -29 c0 -8 -4 -12 -9 -9 -4 3 -8 9 -8
15 0 5 4 9 8 9 5 0 9 -7 9 -15z m80 -32 c0 -9 -4 -10 -14 -2 -7 6 -13 12 -13
14 0 1 6 2 13 2 8 0 14 -6 14 -14z m317 -115 c-3 -4 -11 -5 -19 -1 -21 7 -19
12 4 10 11 0 18 -5 15 -9z m57 -25 c13 -16 12 -17 -3 -4 -17 13 -22 21 -14 21
2 0 10 -8 17 -17z m3499 -27 c0 -3 -4 -8 -10 -11 -5 -3 -10 -1 -10 4 0 6 5 11
10 11 6 0 10 -2 10 -4z m-194 -346 c0 -12 -4 -16 -9 -11 -5 5 -6 14 -3 20 10
15 12 14 12 -9z m-2119 -65 c0 -8 -4 -12 -9 -9 -4 3 -8 9 -8 15 0 5 4 9 8 9 5
0 9 -7 9 -15z m123 -35 c6 -11 8 -20 6 -20 -3 0 -10 9 -16 20 -6 11 -8 20 -6
20 3 0 10 -9 16 -20z m1940 -34 c0 -3 -4 -8 -10 -11 -5 -3 -10 -1 -10 4 0 6 5
11 10 11 6 0 10 -2 10 -4z m-1423 -161 c0 -8 -4 -12 -9 -9 -5 3 -6 10 -3 15 9
13 12 11 12 -6z m1310 -50 c0 -8 -4 -12 -9 -9 -5 3 -6 10 -3 15 9 13 12 11 12
-6z m-327 -109 c0 -3 -4 -8 -10 -11 -5 -3 -10 -1 -10 4 0 6 5 11 10 11 6 0 10
-2 10 -4z"/>
<path d="M1927 4083 c17 -26 17 -27 0 -20 -11 4 -16 3 -12 -3 3 -6 12 -10 18
-10 11 0 17 -19 20 -67 0 -7 5 -13 10 -13 5 0 4 -6 -2 -14 -10 -12 -9 -14 6
-11 10 1 17 8 16 14 -2 6 2 11 7 11 13 0 13 -17 0 -25 -6 -4 -8 -10 -5 -15 3
-5 1 -11 -5 -15 -5 -3 -10 -11 -10 -17 0 -6 9 -3 20 7 22 20 30 92 8 79 -7 -5
-8 -3 -2 7 12 20 14 40 3 33 -5 -3 -9 2 -9 10 0 9 -7 16 -15 16 -14 0 -41 38
-37 53 1 4 -5 7 -13 7 -13 0 -13 -4 2 -27z m69 -75 c4 -6 3 -8 -4 -4 -6 3 -13
-1 -15 -9 -4 -11 -4 -10 -3 2 1 10 -5 24 -14 31 -13 11 -12 11 7 2 12 -5 25
-15 29 -22z"/>
<path d="M454 4052 c3 -5 0 -13 -6 -15 -9 -4 -10 -6 -1 -6 17 -1 25 16 12 25
-7 4 -9 3 -5 -4z"/>
<path d="M3540 4020 c-8 -5 -10 -10 -5 -10 6 0 17 5 25 10 8 5 11 10 5 10 -5
0 -17 -5 -25 -10z"/>
<path d="M3384 3989 c-1 -18 3 -26 10 -22 6 3 5 0 -1 -8 -19 -20 -16 -33 5
-18 16 12 16 12 0 -5 -12 -14 -14 -25 -8 -42 6 -14 5 -26 -1 -29 -5 -4 -7 -10
-4 -15 3 -5 0 -12 -6 -16 -8 -4 -9 -3 -5 4 11 18 -10 14 -28 -4 -15 -14 -16
-14 -16 0 0 9 5 16 12 16 6 0 8 3 4 7 -4 5 -14 -1 -22 -11 -13 -19 -14 -18
-14 13 0 19 -4 30 -10 26 -6 -3 -7 1 -4 9 3 9 9 14 13 12 3 -2 6 6 6 19 0 18
-3 21 -12 13 -20 -17 -15 4 7 27 19 21 19 21 -3 22 -15 2 -18 0 -8 -6 8 -5 9
-11 3 -15 -13 -8 -23 19 -11 31 6 6 4 10 -7 10 -12 0 -15 -7 -12 -28 4 -23 2
-26 -9 -17 -11 9 -13 8 -11 -3 2 -8 -3 -13 -10 -11 -8 1 -11 -2 -7 -8 4 -6 9
-9 12 -6 9 8 43 -13 43 -27 0 -8 -3 -9 -8 -1 -8 13 -44 15 -36 2 3 -5 11 -5
17 -1 8 5 8 2 0 -9 -7 -8 -11 -17 -8 -20 3 -3 -4 -13 -15 -23 -11 -10 -20 -25
-21 -34 0 -12 -3 -11 -9 4 -5 11 -9 14 -9 7 -1 -7 -6 -10 -11 -7 -6 4 -7 12
-3 18 4 7 -2 5 -12 -3 -15 -12 -19 -12 -23 -2 -3 10 -11 7 -30 -10 -19 -17
-24 -19 -19 -6 3 10 1 20 -5 24 -7 4 -8 3 -4 -4 4 -7 1 -12 -8 -12 -9 0 -16
-5 -16 -11 0 -5 6 -7 13 -3 6 4 9 4 5 -1 -4 -4 -3 -16 3 -26 7 -15 14 -17 29
-9 11 6 29 14 40 20 23 12 73 -7 63 -24 -3 -6 0 -6 7 1 11 10 16 9 26 -5 16
-21 17 -32 3 -32 -5 0 -8 4 -5 8 3 5 -1 9 -9 9 -22 0 -19 -5 18 -28 l32 -20
-30 6 c-25 5 -27 4 -12 -5 19 -12 24 -35 5 -24 -9 6 -9 3 0 -9 8 -9 10 -22 6
-28 -5 -8 -3 -9 6 -4 7 4 16 2 21 -6 5 -9 7 -1 6 23 -2 20 0 35 4 32 4 -2 6
13 4 33 -2 26 3 42 14 50 11 9 12 12 2 11 -7 -2 -15 3 -16 10 -2 7 -1 8 2 2 3
-8 9 -8 18 0 10 8 15 8 21 -1 5 -8 3 -10 -7 -4 -8 5 -11 4 -6 0 4 -5 22 -9 40
-9 22 -1 33 -6 35 -18 2 -10 -1 -18 -7 -18 -6 0 -8 7 -5 15 4 8 1 15 -4 15
-16 0 -24 -18 -12 -25 6 -4 7 -11 4 -17 -5 -7 -2 -8 7 -3 12 8 12 6 0 -8 -12
-15 -11 -17 3 -17 10 0 14 -5 11 -10 -4 -6 -9 -8 -13 -6 -4 2 -7 -6 -7 -18 0
-16 6 -21 27 -21 15 -1 25 2 22 6 -2 4 -1 9 3 12 5 2 2 2 -4 1 -7 -2 -13 1
-13 6 0 9 15 14 33 11 4 -1 1 9 -8 22 -8 13 -12 27 -8 31 14 14 11 36 -5 37
-11 0 -12 2 -4 6 6 2 9 10 5 16 -4 7 1 6 10 -2 10 -8 21 -11 24 -7 4 4 1 11
-7 16 -8 6 -11 10 -6 10 5 0 18 -8 28 -17 17 -16 18 -15 14 8 -2 13 -9 23 -15
22 -10 -3 -15 9 -13 28 1 4 -7 5 -18 2 -11 -3 -17 -10 -13 -17 4 -6 -1 -5 -10
3 -9 7 -17 21 -16 30 0 12 2 11 9 -4 5 -11 9 -14 9 -7 1 7 7 10 14 7 6 -4 1 3
-12 15 -21 18 -22 24 -12 46 14 31 14 37 1 29 -6 -4 -7 1 -3 11 5 13 3 15 -8
9 -12 -8 -12 -6 0 8 7 9 12 17 10 18 -31 6 -34 5 -35 -22z m-113 -123 c-6 -7
-9 -15 -6 -18 3 -3 -4 -13 -14 -22 -16 -15 -19 -15 -17 -2 1 8 10 23 19 34 9
10 14 22 10 27 -5 4 -2 5 5 1 9 -6 10 -11 3 -20z m-116 -46 c3 -5 2 -10 -4
-10 -5 0 -13 5 -16 10 -3 6 -2 10 4 10 5 0 13 -4 16 -10z m209 -6 c3 -8 2 -12
-4 -9 -6 3 -10 10 -10 16 0 14 7 11 14 -7z m67 -67 c-7 -7 -7 -17 0 -31 10
-20 10 -20 -5 -2 -11 13 -12 23 -6 31 5 7 6 16 2 20 -4 5 -1 5 6 0 10 -5 11
-10 3 -18z m-17 -73 c3 -8 2 -12 -4 -9 -6 3 -10 10 -10 16 0 14 7 11 14 -7z"/>
<path d="M3551 4001 c-8 -5 -7 -13 4 -27 22 -29 18 -39 -5 -13 l-21 24 17 -34
c15 -31 18 -33 29 -18 9 13 14 14 25 4 9 -9 9 -6 -1 11 -8 12 -17 22 -21 22
-4 0 -5 7 -2 15 5 13 9 13 23 3 13 -10 14 -10 4 2 -15 16 -36 21 -52 11z"/>
<path d="M3430 3989 c0 -5 5 -7 10 -4 6 3 10 8 10 11 0 2 -4 4 -10 4 -5 0 -10
-5 -10 -11z"/>
<path d="M906 3958 c3 -5 10 -6 15 -3 13 9 11 12 -6 12 -8 0 -12 -4 -9 -9z"/>
<path d="M966 3938 c3 -5 10 -6 15 -3 13 9 11 12 -6 12 -8 0 -12 -4 -9 -9z"/>
<path d="M3427 3933 c-11 -11 -8 -21 9 -27 13 -5 14 -4 6 7 -7 8 -9 17 -5 20
3 4 4 7 1 7 -2 0 -8 -3 -11 -7z"/>
<path d="M3532 3930 c2 -8 9 -21 16 -28 15 -16 16 -32 1 -32 -5 0 -8 4 -4 9 3
5 2 12 -3 15 -13 8 -11 -28 2 -36 7 -5 7 -8 -2 -8 -8 0 -10 -5 -6 -12 4 -7 -2
-4 -14 6 -17 15 -22 16 -22 5 0 -8 6 -21 13 -28 9 -11 9 -12 0 -7 -9 5 -11 2
-7 -8 8 -20 24 -21 24 -1 0 8 4 15 10 15 5 0 7 -7 4 -15 -4 -9 3 -19 17 -25
22 -10 21 -10 -6 -5 -22 4 -26 3 -15 -5 8 -5 11 -10 7 -10 -4 0 -4 -8 2 -17 7
-13 5 -23 -5 -34 -12 -14 -12 -16 1 -16 8 0 11 5 8 11 -3 6 0 5 7 -1 16 -15
23 -46 9 -37 -5 3 -7 10 -4 15 4 5 -2 6 -11 2 -11 -4 -13 -8 -6 -11 7 -2 9 -9
5 -15 -3 -7 -3 -9 2 -5 4 4 17 3 28 -3 12 -7 17 -7 13 -1 -3 6 0 13 6 15 10 4
10 6 1 6 -7 1 -13 6 -13 11 0 6 3 9 8 8 4 -2 7 2 7 7 0 6 -3 9 -7 8 -4 -2 -6
6 -5 17 1 11 6 20 12 20 6 0 6 3 -1 8 -6 4 -11 21 -11 37 1 30 1 30 49 28 29
-2 48 1 48 8 0 5 -4 7 -10 4 -5 -3 -10 -1 -10 6 0 6 8 9 20 6 11 -3 20 -1 20
4 0 5 -5 9 -11 9 -5 0 -7 6 -3 13 5 8 2 8 -9 -2 -14 -11 -17 -11 -18 0 -1 8
-5 3 -9 -11 -8 -24 -8 -24 -9 -3 -1 16 -6 21 -16 17 -8 -4 -12 -11 -9 -18 3
-6 -1 -3 -9 7 -16 19 -32 24 -21 5 4 -7 3 -8 -5 -4 -9 6 -9 11 0 22 9 11 8 14
-5 14 -10 0 -14 5 -11 10 4 6 11 8 16 5 5 -3 6 1 3 10 -5 11 -10 13 -17 6 -8
-8 -16 -6 -30 6 -14 14 -18 14 -15 3z m48 -192 c0 -6 -6 -5 -15 2 -8 7 -15 14
-15 16 0 2 7 1 15 -2 8 -4 15 -11 15 -16z"/>
<path d="M1955 3920 c-3 -6 1 -7 9 -4 18 7 21 14 7 14 -6 0 -13 -4 -16 -10z"/>
<path d="M1995 3896 c-16 -20 -21 -34 -15 -42 6 -6 6 -14 2 -18 -10 -11 20 -3
34 9 6 5 10 25 8 43 -2 18 1 30 6 27 5 -3 11 -2 14 3 3 5 -2 9 -10 9 -8 0 -26
-14 -39 -31z m8 -37 c-8 -8 -13 -7 -18 2 -5 8 -4 10 3 5 7 -4 12 -2 12 5 0 7
3 9 7 6 4 -4 2 -12 -4 -18z"/>
<path d="M2033 3863 c10 -9 -23 -43 -41 -43 -20 0 -9 -11 15 -15 18 -3 19 -7
8 -37 -8 -20 6 -22 40 -8 14 6 16 9 5 10 -8 2 -19 2 -23 1 -5 -1 -6 3 -2 8 3
6 11 9 18 7 7 -1 9 -1 4 1 -4 3 -5 9 -2 13 3 5 0 12 -6 16 -8 5 -9 3 -4 -6 5
-9 4 -11 -4 -6 -6 4 -8 13 -4 19 13 20 13 47 1 47 -6 0 -8 -3 -5 -7z"/>
<path d="M3001 3804 c-8 -19 -7 -25 7 -33 9 -6 12 -11 6 -11 -6 0 -14 3 -18 7
-9 9 -46 11 -46 2 0 -4 6 -10 13 -12 7 -4 6 -6 -5 -6 -9 -1 -19 5 -22 12 -3 6
-3 0 -1 -15 2 -15 -1 -31 -7 -34 -6 -4 -8 -2 -5 3 4 6 1 13 -7 16 -9 4 -12 0
-9 -13 5 -17 -28 -46 -39 -35 -3 3 -5 -1 -5 -8 0 -7 9 -14 19 -14 11 -1 16 3
12 9 -4 7 -2 8 5 4 6 -4 9 -12 6 -17 -4 -5 1 -9 10 -9 12 0 14 4 5 19 -7 14
-7 22 2 27 6 4 8 3 5 -3 -4 -6 -1 -16 7 -22 11 -9 13 -6 11 14 -2 14 2 28 7
32 7 3 8 1 4 -5 -11 -19 3 -14 27 9 19 18 19 19 3 13 -14 -5 -17 -4 -12 4 4 7
16 12 28 12 11 0 22 8 25 20 3 11 9 17 14 14 5 -3 9 0 9 7 0 7 3 9 6 6 4 -4 1
-14 -7 -24 -9 -10 -9 -14 -2 -9 7 4 23 2 35 -4 22 -11 22 -10 4 4 -11 9 -17
19 -13 22 11 12 -13 33 -30 27 -10 -4 -14 -2 -10 4 3 5 0 10 -8 10 -7 0 -18
-11 -24 -23z"/>
<path d="M2000 3790 c-9 -6 -10 -10 -3 -10 6 0 15 5 18 10 8 12 4 12 -15 0z"/>
<path d="M2970 3789 c0 -5 5 -7 10 -4 6 3 10 8 10 11 0 2 -4 4 -10 4 -5 0 -10
-5 -10 -11z"/>
<path d="M3160 3785 c-7 -8 -17 -12 -23 -8 -6 3 -7 1 -3 -6 6 -9 11 -9 21 -1
7 6 17 10 21 9 5 -1 16 -1 24 0 13 1 13 2 0 11 -20 13 -25 12 -40 -5z"/>
<path d="M1420 3781 c0 -6 4 -13 10 -16 6 -3 7 1 4 9 -7 18 -14 21 -14 7z"/>
<path d="M1490 3767 c0 -2 6 -10 14 -16 11 -9 16 -9 22 1 4 7 4 10 -1 6 -4 -4
-14 -3 -22 3 -7 6 -13 9 -13 6z"/>
<path d="M2833 3663 c4 -6 0 -19 -9 -27 -8 -9 -11 -16 -5 -16 6 0 8 -7 4 -16
-3 -9 -9 -12 -12 -7 -3 4 -13 9 -21 11 -11 3 -11 -1 3 -16 17 -19 17 -19 -7
-17 -22 3 -24 0 -20 -27 3 -28 2 -29 -10 -13 -10 14 -15 15 -21 5 -6 -9 -4
-11 6 -6 8 4 6 1 -3 -7 -21 -17 -23 -34 -6 -39 7 -3 5 -7 -6 -11 -9 -4 -15 -3
-12 2 3 5 -3 11 -15 14 -20 5 -20 5 -4 -20 10 -14 12 -22 5 -18 -8 5 -11 3 -8
-6 3 -8 13 -16 23 -17 10 -3 15 0 11 7 -4 6 -2 11 4 11 6 0 8 5 5 11 -4 6 0 9
11 7 12 -2 20 7 27 32 5 19 12 29 14 23 6 -18 20 -16 20 2 0 8 -6 15 -13 15
-18 0 -27 17 -13 26 7 4 9 3 6 -3 -4 -6 4 -13 18 -15 29 -6 39 1 26 16 -6 7
-4 18 4 29 11 16 13 16 19 2 3 -9 2 -13 -3 -10 -5 3 -12 2 -15 -3 -10 -16 24
-9 40 9 12 13 12 19 3 25 -8 5 -10 3 -4 -6 5 -9 4 -11 -4 -6 -9 6 -9 11 0 22
12 15 24 19 15 6 -2 -4 4 -9 16 -9 19 -2 19 -1 -2 17 -13 11 -27 17 -32 14 -5
-3 -16 0 -25 8 -10 7 -14 8 -10 1z m22 -34 c-4 -5 -12 -9 -18 -8 -9 0 -8 2 1
6 6 2 9 10 6 15 -4 7 -2 8 5 4 6 -4 9 -12 6 -17z"/>
<path d="M315 3430 c-3 -6 1 -7 9 -4 18 7 21 14 7 14 -6 0 -13 -4 -16 -10z"/>
<path d="M2706 3318 c3 -5 10 -6 15 -3 13 9 11 12 -6 12 -8 0 -12 -4 -9 -9z"/>
<path d="M4535 1500 c3 -5 8 -10 11 -10 2 0 4 5 4 10 0 6 -5 10 -11 10 -5 0
-7 -4 -4 -10z"/>
<path d="M1026 1352 c-3 -5 1 -9 9 -9 8 0 15 4 15 9 0 4 -4 8 -9 8 -6 0 -12
-4 -15 -8z"/>
<path d="M4385 1241 c-3 -5 0 -13 6 -17 7 -4 9 -3 5 4 -3 5 0 13 6 15 9 4 10
6 1 6 -6 1 -14 -3 -18 -8z"/>
<path d="M1554 1159 c-4 -7 -3 -9 4 -5 5 3 13 0 15 -6 4 -9 6 -10 6 -1 1 17
-16 25 -25 12z"/>
<path d="M2066 968 c3 -5 10 -6 15 -3 13 9 11 12 -6 12 -8 0 -12 -4 -9 -9z"/>
<path d="M4225 941 c-3 -5 0 -13 6 -17 8 -5 9 -3 4 6 -6 10 -4 12 9 7 10 -4
15 -3 11 3 -8 13 -22 13 -30 1z"/>
<path d="M2496 812 c-3 -5 1 -9 9 -9 8 0 12 4 9 9 -3 4 -7 8 -9 8 -2 0 -6 -4
-9 -8z"/>
<path d="M3650 544 c0 -8 5 -12 10 -9 6 4 8 11 5 16 -9 14 -15 11 -15 -7z"/>
<path d="M3770 536 c0 -2 7 -9 15 -16 13 -11 14 -10 9 4 -5 14 -24 23 -24 12z"/>
<path d="M3856 513 c-6 -14 -5 -15 5 -6 7 7 10 15 7 18 -3 3 -9 -2 -12 -12z"/>
</g>
</svg>
